<?xml version="1.0" encoding="utf-8"?>
<!-- Generator: Adobe Illustrator 22.0.1, SVG Export Plug-In . SVG Version: 6.00 Build 0)  -->
<svg version="1.1" id="Layer_1" xmlns="http://www.w3.org/2000/svg" xmlns:xlink="http://www.w3.org/1999/xlink" x="0px" y="0px"
	 viewBox="0 0 360 360" style="enable-background:new 0 0 360 360;" xml:space="preserve">
<path d="M58.4,103.5L43.9,103l3.4,44.9l8.9-0.6l1.4-14.5l-6.3,1.3l2.6-7.1l8,0.2l-1,29.7l-22.9-5.5L36,99.1l20.5-4.7L58.4,103.5z
	 M50.4,251.6V169L36,172.6l4.6,90.6l41.6-2.8l2.9-17.4L50.4,251.6z M75.8,149v-14.7l7.1-1.3l-1.1-5.6l-6,1.1v-13.8l10.8-2.1l1.5-7.4
	l-12.3,3v0l-7.1,1.7l2.3,44.8l20.6-1.4l1.4-8.6L75.8,149z M151.3,117.5l-1.2-7l-16.8-1.1l-1.9,36.5l5.8,1.4v0l10,2.4l-1.2-6
	l-8.8-1.7v-11.3l4.9,0.9l0.9-4.6l-5.8-1.1V114L151.3,117.5z M124.6,143.9l-2.3-44.9l-4.8,0.3V128l-13.8-30.7l-8.1,2l2.6,50.8
	l5.5-0.4v-33.4l13.8,29.3L124.6,143.9z M292.9,103l2.4,48.1l5.2-0.3v-30.8l14.8,32.9l8.6-2.1l-2.8-54.5l-5.9,0.4v35.8l-14.8-31.3
	L292.9,103z M225.7,176.9l3.6,71.7l7.7-0.5v-45.9l22.1,49l12.9-3.2l-4.1-81.1l-8.7,0.6v53.3L237,174.1L225.7,176.9z M249.1,156
	l7.1-1.7l-2.3-44.6l-4.8,0.3V156L249.1,156z M199,265.6l13.4-3.3l-4.3-84.2l-9.1,0.6V265.6L199,265.6z M324,181.8l-8.7-2.6l-11,29.2
	l-16-35.5l-10.8,8.5l21.4,41.6l-14.2,37.6l13.6,1.7l8-24.8l9.8,19l8-4.3l-13.2-29.2L324,181.8z M249.1,104.3l-1.3-8.1l-32.3,2.6
	l0.2,5.5H228l2.3,45.9l5.5-0.4v-45.5H249.1z M157.8,183.2v75.4l9.1,0.6l3.9-76H191l0.4-9.1l-53.6-4.3l-2.1,13.4H157.8z M178.3,124.4
	l4.8-0.3l-3-29.8l-15.7,3.4l-8.1,2l2.6,50.8l5.5-0.4v-24.9l7-0.4l11.3,30.3l6.9-4.7L178.3,124.4z M163.9,117.1V104l8.5-1.8l0.5,14.4
	L163.9,117.1z M210,106l-13-2.8l-2.5,24.6l-2.2,18.4l10.1-1.2l0.6-16.7l7.1,0.4v20.6l4.5,0.3l2.1-42L210,106z M210.4,122l-7.4-0.5
	l0.4-11.9l7,1.5V122z M129.9,221.1l-4.5-44.2l-23.3,5l-12,2.9l3.8,75.5l8.1-0.5v-37.1l12.7-0.7l1,30l18.1,2.1L129.9,221.1z
	 M101.4,210.7v-19.5l12.6-2.7l0.8,21.4L101.4,210.7z M285.9,107.3L285.9,107.3h-0.2H269h-3.9l-1.9,37l6.4,1.6l12.5,2.7l3.4-36.8
	L285.9,107.3L285.9,107.3z M276,142.3l-6.7-1.4l-0.2-27.6l8.2-0.8L276,142.3z"/>
</svg>
