<?xml version="1.0" standalone="no"?>
<!DOCTYPE svg PUBLIC "-//W3C//DTD SVG 20010904//EN"
 "http://www.w3.org/TR/2001/REC-SVG-20010904/DTD/svg10.dtd">
<svg version="1.0" xmlns="http://www.w3.org/2000/svg"
 width="400.000000pt" height="400.000000pt" viewBox="0 0 400.000000 400.000000"
 preserveAspectRatio="xMidYMid meet">
<metadata>
Created by potrace 1.11, written by Peter Selinger 2001-2013
</metadata>
<g transform="translate(0.000000,400.000000) scale(0.100000,-0.100000)"
fill="#000000" stroke="none">
<path d="M0 2000 l0 -2000 2000 0 2000 0 0 2000 0 2000 -2000 0 -2000 0 0
-2000z m2305 323 c0 -912 0 -918 20 -915 11 1 29 7 40 12 11 5 169 45 350 90
182 45 338 84 349 87 16 4 18 1 13 -28 -37 -212 -63 -348 -68 -353 -5 -5 -152
-17 -659 -51 -124 -9 -234 -17 -245 -18 -22 -2 -16 -87 -64 868 -12 226 -23
451 -27 500 -15 250 -31 641 -25 647 7 8 267 76 296 77 20 1 20 -5 20 -916z
m-641 615 c2 -13 16 -83 31 -157 14 -73 24 -135 22 -137 -2 -2 -115 1 -251 7
-136 6 -249 9 -252 6 -4 -4 6 -151 60 -887 14 -184 30 -409 37 -500 14 -213
13 -209 81 -199 29 5 96 11 150 15 l96 6 7 71 c11 130 25 261 37 345 6 45 8
85 5 89 -6 5 -65 -6 -179 -35 -20 -5 -39 -8 -41 -5 -3 2 16 61 42 130 l47 126
139 -2 c77 -1 141 -4 143 -6 4 -4 4 -9 -8 -315 -6 -151 -14 -375 -18 -497 -5
-122 -11 -226 -15 -229 -7 -7 -55 3 -521 116 -115 27 -221 50 -235 50 -14 0
-31 4 -38 8 -10 7 -29 422 -48 1107 -3 105 -8 219 -10 255 -2 36 -7 162 -11
281 l-7 215 89 22 c49 12 188 44 309 72 121 28 236 54 255 59 61 16 79 13 84
-11z m989 -75 c31 -84 162 -372 169 -373 4 0 11 12 14 28 9 39 106 295 115
306 8 9 96 -11 104 -24 2 -4 -32 -117 -76 -251 l-80 -243 76 -166 c41 -91 75
-170 75 -177 0 -6 -20 -23 -45 -36 l-44 -25 -23 41 c-13 23 -36 72 -52 110
-15 37 -32 67 -37 67 -4 0 -28 -62 -52 -137 l-44 -138 -64 -1 c-118 -2 -116
-9 -48 167 32 83 70 184 84 224 l26 73 -117 228 c-64 126 -121 233 -125 239
-18 19 -7 36 54 84 34 28 64 50 67 51 3 0 14 -21 23 -47z"/>
</g>
</svg>
